<?xml version="1.0" encoding="UTF-8" standalone="no"?>
<!-- Created with Inkscape (http://www.inkscape.org/) -->

<svg
   width="210mm"
   height="297mm"
   viewBox="0 0 210 297"
   version="1.1"
   id="svg5"
   inkscape:version="1.1 (c4e8f9e, 2021-05-24)"
   sodipodi:docname="logovector.svg"
   xmlns:inkscape="http://www.inkscape.org/namespaces/inkscape"
   xmlns:sodipodi="http://sodipodi.sourceforge.net/DTD/sodipodi-0.dtd"
   xmlns="http://www.w3.org/2000/svg"
   xmlns:svg="http://www.w3.org/2000/svg">
  <sodipodi:namedview
     id="namedview7"
     pagecolor="#ffffff"
     bordercolor="#666666"
     borderopacity="1.0"
     inkscape:pageshadow="2"
     inkscape:pageopacity="0.0"
     inkscape:pagecheckerboard="0"
     inkscape:document-units="mm"
     showgrid="false"
     inkscape:zoom="0.40890152"
     inkscape:cx="247.00324"
     inkscape:cy="561.25984"
     inkscape:window-width="1280"
     inkscape:window-height="687"
     inkscape:window-x="0"
     inkscape:window-y="23"
     inkscape:window-maximized="0"
     inkscape:current-layer="layer1" />
  <defs
     id="defs2" />
  <g
     inkscape:label="Layer 1"
     inkscape:groupmode="layer"
     id="layer1">
    <path
       style="fill:#ff85ff;stroke-width:0.352778;fill-opacity:1"
       d="m 155.19083,105.20923 c -1.61144,-1.68198 -4.68464,-2.35802 -8.1101,-1.78405 -1.15778,0.194 -2.21769,0.23637 -2.35536,0.0942 -0.13767,-0.14221 -0.36184,-1.40949 -0.49817,-2.8162 l -0.24785,-2.557632 1.54488,0.003 c 5.91089,0.0102 10.55296,2.337462 12.11035,6.071422 0.75037,1.79906 0.69782,2.03979 -0.44529,2.03979 -0.64037,0 -1.34919,-0.37248 -1.99846,-1.05018 z M 42.823284,102.8956 c 0,-3.454482 0.06347,-3.435682 -3.013953,-0.89265 -1.677704,1.38638 -1.821167,1.43423 -4.299719,1.43423 h -2.564106 v -6.741022 -6.74102 l -0.849211,0.21314 c -3.989293,1.00125 -7.970234,4.44212 -7.970234,6.88897 0,1.36815 1.440112,1.53419 4.993391,0.57573 0.895386,-0.24152 0.962175,-0.16235 1.523212,1.80566 0.322721,1.132052 0.761412,2.658672 0.97487,3.392502 0.543954,1.87003 0.09605,2.19354 -3.036958,2.19354 -2.223049,0 -2.766287,-0.1327 -4.067,-0.99347 -4.460875,-2.95207 -3.604929,-10.611672 1.828508,-16.362772 l 1.73272,-1.83403 -0.900002,-0.9 c -0.495002,-0.495 -1.304094,-0.90001 -1.797983,-0.90001 -1.288881,0 -2.309091,-1.16899 -2.309091,-2.64583 0,-1.13673 0.08399,-1.23472 1.058333,-1.23472 0.80321,0 1.058333,0.16098 1.058333,0.66781 0,0.81834 0.415744,0.98834 3.182474,1.30136 2.428641,0.27477 3.841178,1.18933 4.575679,2.96257 l 0.441335,1.06548 h 8.560996 8.560996 l 0.235585,-1.25577 c 0.328327,-1.75014 2.341937,-3.85944 4.331526,-4.53736 2.212795,-0.75398 6.357655,-0.70064 9.798911,0.12609 5.097533,1.22463 10.315702,3.40643 9.67631,4.04582 -0.08771,0.0877 -1.63558,-0.22392 -3.43971,-0.69251 -7.532314,-1.95638 -12.72121,-1.88583 -14.615073,0.19871 -2.039182,2.2445 -3.557457,2.11502 24.801077,2.11502 h 25.77122 l -0.10664,1.85208 -0.10663,1.85209 -5.02708,0.0979 c -4.147362,0.0807 -5.027084,0.18879 -5.027084,0.61736 0,0.3538 0.375913,0.51948 1.178656,0.51948 1.711011,0 4.329788,0.86813 5.898808,1.95546 2.65008,1.83651 3.62343,5.87382 2.00372,8.311122 -0.96474,1.45171 -3.46968,2.7862 -5.22993,2.7862 h -1.290912 l -0.234143,-1.85209 c -0.128778,-1.01864 -0.326555,-2.372862 -0.439508,-3.009382 l -0.205366,-1.15729 1.405386,0.22473 c 1.773853,0.28365 2.995643,-0.30651 2.843723,-1.37359 -0.14364,-1.00898 -1.87605,-1.56836 -4.07466,-1.31567 l -1.679385,0.19301 -0.09788,5.027082 -0.09788,5.02709 h -2.636149 -2.636147 v -1.20595 c 0,-1.49096 -1.265664,-2.38081 -4.602032,-3.23555 -1.845927,-0.47291 -2.634703,-0.50745 -4.380868,-0.19183 -1.171279,0.2117 -2.438228,0.42799 -2.815442,0.48065 -0.595553,0.0831 -0.742954,-0.25258 -1.119668,-2.550102 -0.238605,-1.45521 -0.445914,-2.91196 -0.460685,-3.23723 -0.02092,-0.46044 1.457304,-1.08381 6.675917,-2.81527 4.014869,-1.33207 6.702778,-2.4035 6.702778,-2.6718 0,-0.34877 -1.756974,-0.44792 -7.9375,-0.44792 h -7.9375 v 7.9375 7.937502 h -2.645834 -2.645833 v -3.63817 c 0,-3.514362 -0.03302,-3.668952 -0.970139,-4.543002 -1.389708,-1.29618 -2.317027,-1.69661 -3.92896,-1.69661 -2.62955,0 -4.341217,1.49421 -3.115625,2.7198 0.464094,0.46409 0.709405,0.44265 2.131272,-0.18631 l 1.606811,-0.71077 1.053487,3.141142 c 0.579416,1.72763 0.928151,3.21861 0.774964,3.31328 -0.153187,0.0947 -1.13345,0.27243 -2.17836,0.39501 -4.686018,0.54972 -8.426228,-2.36011 -8.426228,-6.555482 0,-3.51312 2.567449,-6.01785 6.138058,-5.98812 0.937782,0.008 4.266138,1.0181 6.297359,1.91151 0.55021,0.242 0.617361,0.0372 0.617361,-1.88287 v -2.15441 h -7.584723 -7.584722 v 7.9375 7.937502 h -2.469445 -2.469444 v -7.937502 -7.9375 h -5.997223 -5.997222 v 2.85162 c 0,1.56839 0.119062,2.7987 0.264583,2.73403 0.145521,-0.0647 1.329889,-0.72307 2.63193,-1.4631 l 2.367346,-1.3455 2.130571,1.44684 2.13057,1.44684 v 5.102132 5.10214 h -2.469444 -2.469445 z m 48.683335,-4.220922 c 0,-0.87312 -0.145587,-1.5875 -0.323529,-1.5875 -0.177944,0 -1.089737,0.32844 -2.026214,0.72986 l -1.702682,0.72985 1.93802,0.81824 c 1.065907,0.45003 1.977704,0.835972 2.026211,0.857652 0.04851,0.0217 0.08819,-0.674972 0.08819,-1.548102 z m 36.336111,6.026002 c 0,-0.99004 -0.21393,-1.33817 -1.1949,-1.94444 -0.6572,-0.40618 -2.25674,-1.00053 -3.55453,-1.32079 -2.31202,-0.57055 -4.07714,-0.46529 -7.08613,0.42259 -0.67123,0.19806 -0.75629,-0.0213 -1.18626,-3.059262 -0.25476,-1.79994 -0.32625,-3.33023 -0.15888,-3.40065 0.16737,-0.0704 3.15236,-1.10825 6.63331,-2.3063 3.48094,-1.19804 6.39136,-2.3767 6.46759,-2.61923 0.10756,-0.34222 -1.3691,-0.44097 -6.59358,-0.44097 h -6.73217 v -1.94028 -1.94028 h 14.11111 14.11111 v 1.94028 c 0,1.83444 -0.0481,1.94028 -0.88194,1.94028 h -0.88195 v 7.9375 7.937502 h -2.64583 -2.64584 v -7.937502 -7.9375 h -1.23472 -1.23472 v 7.9375 7.937502 h -2.64583 -2.64584 z m -0.13287,-7.511192 c -0.20951,-0.20951 -3.3467,0.94541 -3.57603,1.31646 -0.0869,0.14069 0.6723,0.57236 1.68721,0.95928 l 1.8453,0.703492 0.11028,-1.401102 c 0.0606,-0.7706 0.0306,-1.48076 -0.0668,-1.57813 z m 49.52176,4.891262 c 0,-3.258432 -0.0957,-3.912482 -0.64513,-4.409722 -0.35483,-0.32112 -0.96013,-0.58385 -1.34511,-0.58385 -0.7384,0 -2.23097,1.39849 -2.91795,2.73403 -0.27654,0.537612 -0.72779,0.793752 -1.39838,0.793752 -0.85434,0 -1.04981,-0.19938 -1.42578,-1.454222 -0.63238,-2.11072 -1.79201,-3.13189 -3.55654,-3.13189 -1.06028,0 -1.67198,0.2288 -2.30553,0.86235 -1.63823,1.63823 0.007,2.61927 2.35584,1.40469 0.59048,-0.30535 1.11312,-0.50378 1.16142,-0.44097 0.0483,0.0628 0.50313,1.46232 1.01072,3.110012 0.61205,1.98678 0.8047,3.114 0.57195,3.34675 -0.19302,0.19302 -1.60439,0.35094 -3.13639,0.35094 -2.52135,0 -2.92984,-0.10035 -4.30853,-1.05841 -3.1749,-2.20627 -3.93499,-6.090632 -1.78923,-9.143672 2.06523,-2.93847 5.49342,-3.65399 9.13953,-1.9076 1.58671,0.76 1.90068,0.80853 2.46945,0.38173 0.89018,-0.668 3.31726,-0.36595 4.64259,0.57777 0.58125,0.41389 1.15138,0.75252 1.26695,0.75252 0.11557,0 0.21012,-0.9525 0.21012,-2.11667 v -2.11666 h -9.13447 c -10.16331,0 -9.56275,0.1569 -9.56275,-2.4983 v -1.38226 h 15.875 15.875 v 9.87778 9.877782 h -2.64583 -2.64583 v -7.937502 -7.9375 h -1.41112 -1.41111 v 7.9375 7.937502 h -2.46944 -2.46945 z m -30.19023,-5.287962 c -3.52404,-1.65396 -4.32038,-5.19961 -1.80997,-8.05881 3.86573,-4.40283 11.53271,-2.75196 11.53777,2.48434 0.004,4.30968 -5.59104,7.51599 -9.7278,5.57447 z m 4.49787,-2.75889 c 1.40717,-1.27348 0.20117,-2.94141 -1.62482,-2.24717 -1.07577,0.40901 -1.24964,1.88968 -0.28768,2.44997 0.85954,0.50064 1.1718,0.46752 1.9125,-0.2028 z"
       id="path868" />
  </g>
</svg>
